<?xml version="1.0" encoding="UTF-8"?>
<svg width="1200" height="900" version="1.1" viewBox="0 0 317 238" xmlns="http://www.w3.org/2000/svg"><rect x="-.17" width="100%" height="100%" style="fill:#fcb040"/><text x="158.06615" y="221.92671" style="fill:#3c0000;font-family:'Segoe UI';font-size:15px;font-weight:300;line-height:100%;text-align:center;text-anchor:middle" xml:space="preserve"><tspan style="fill:#3c0000;font-family:'Segoe UI';font-size:15px;font-weight:bold">PLAYGROUND FOR BEAVER THEMER</tspan></text><g transform="translate(222 -16)"><g transform="translate(11)" style="opacity:.5;stroke-dasharray:5.28888889, 5.28888888999999995;stroke-width:2.6;stroke:#7d2d0f"><rect x="-181" y="38" width="61%" height="14%" style="fill:none;stroke-dasharray:5.28888889, 5.28888888999999995;stroke-width:2.6;stroke:#7d2d0f"/><rect x="-181" y="171" width="61%" height="14%" style="fill:none;stroke-dasharray:5.28888889, 5.28888888999999995;stroke-width:2.6;stroke:#7d2d0f"/><rect x="-181" y="86" width="61%" height="30%" style="fill:none;stroke-dasharray:5.28888889, 5.28888888999999995;stroke-width:2.6;stroke:#7d2d0f"/></g><rect x="-151" y="42" width="62%" height="16%" style="fill:#7d2d0f"/><rect x="-151" y="175" width="62%" height="16%" style="fill:#7d2d0f"/><rect x="-151" y="90" width="62%" height="31%" style="fill:#7d2d0f"/><circle cx="-106" cy="61" r="7.9" style="fill:#fff;paint-order:normal"/><rect x="-66" y="58" width="23%" height="2.2%" rx="0" ry="0" style="fill:#fff"/><rect x="-114" y="185" width="12%" height="6.7%" rx="0" ry="0" style="fill:#fff"/><rect x="-72" y="185" width="12%" height="6.7%" rx="0" ry="0" style="fill:#fff"/><rect x="-29" y="185" width="12%" height="6.7%" rx="0" ry="0" style="fill:#fff"/><rect x="-114" y="100" width="38%" height="11%" rx="0" ry="0" style="fill:#fff"/><rect x="-90" y="132" width="23%" height="2.2%" rx="0" ry="0" style="fill:#fff"/><rect x="-90" y="143" width="23%" height="4.4%" rx="0" ry="0" style="fill:#fff"/><path transform="matrix(.26 0 0 .26 -.17 0)" d="m-150 390a20 20 0 0 0-20 20 20 20 0 0 0 20 20 20 20 0 0 0 20-20 20 20 0 0 0-20-20zm-100 20-140 60h380l-100-40-60 20z" style="fill:#7d2d0f;opacity:.5;paint-order:normal"/></g></svg>
