<?xml version="1.0" encoding="UTF-8"?>
<svg width="1200" height="900" version="1.1" viewBox="0 0 1200 900" xmlns="http://www.w3.org/2000/svg"><rect width="100%" height="100%" style="fill:#fcb040"/><text x="597.64221" y="839.39545" style="fill:#3c0000;font-family:'Segoe UI';font-size:50px;font-weight:300;line-height:100%;text-align:center;text-anchor:middle" xml:space="preserve"><tspan style="fill:#3c0000;font-family:'Segoe UI';font-size:50px;font-weight:bold">PLAYGROUND FOR BEAVER THEMER</tspan></text><g transform="translate(222,-16)"><g transform="translate(-20 60)"><rect x="19" y="17" width="60%" height="15%" style="fill:none;stroke-dasharray:5.28888884, 5.28888884;stroke-width:2.6;stroke:#7d2d0f"/><rect x="19" y="517" width="60%" height="15%" style="fill:none;stroke-dasharray:5.28888889, 5.28888889;stroke-width:2.6;stroke:#7d2d0f"/><rect x="19" y="197" width="60%" height="31%" style="fill:none;stroke-dasharray:5.28888885, 5.28888885;stroke-width:2.6;stroke:#7d2d0f"/><path d="m58 36v140h720v-140zm150 40a30 30 0 0 1 30 30 30 30 0 0 1-30 30 30 30 0 0 1-30-30 30 30 0 0 1 30-30zm170 20h280v20h-280z" style="fill:#7d2d0f;stroke-width:3.8"/><path d="m58 536v140h720v-140zm120 40h140v60h-140zm170 0h140v60h-140zm170 0h140v60h-140z" style="fill:#7d2d0f;stroke-width:3.8"/><path d="m58 216v280h720v-280zm120 40h480v100h-480zm289 11a20 20 0 0 0-20 20 20 20 0 0 0 20 20 20 20 0 0 0 20-20 20 20 0 0 0-20-20zm-98 20-138 59h374l-98-39-59 20zm-91 90h280v20h-280zm0 40h280v40h-280z" style="fill:#7d2d0f;stroke-width:3.8"/></g></g></svg>
