<svg xmlns="http://www.w3.org/2000/svg" width="1200" height="900"><path fill="#dc5d33" d="M0 0h1200v900H0z"/><text xml:space="preserve" x="599.41" y="705.42" fill="#fff" font-family="Roboto Slab" font-size="75.67" font-weight="400" style="line-height:120%;-inkscape-font-specification:&quot;Roboto Slab&quot;;font-variant-ligatures:normal;font-variant-caps:normal;font-variant-numeric:normal;font-variant-east-asian:normal;text-align:center" text-anchor="middle"><tspan x="599.41" y="705.42" style="line-height:120%;-inkscape-font-specification:&quot;Roboto Slab&quot;;font-variant-ligatures:normal;font-variant-caps:normal;font-variant-numeric:normal;font-variant-east-asian:normal">Playground for</tspan><tspan x="599.41" y="796.22" font-weight="700" style="line-height:120%;-inkscape-font-specification:&quot;Roboto Slab&quot;;font-variant-ligatures:normal;font-variant-caps:normal;font-variant-numeric:normal;font-variant-east-asian:normal">Beaver Themer</tspan></text><path fill="none" stroke="#fff" stroke-dasharray="30,30" stroke-dashoffset="40" stroke-width="10" d="M363 543H223V108h720v217.5"/><path fill="#fff" d="M262 147v440h720V147zm150 40a30 30 0 1 1 0 60 30 30 0 0 1 0-60zm350 16h100v28H762zm-300 4h220v20H462zm-80 80h480v100H382zm289 11a20 20 0 1 0 0 40 20 20 0 0 0 0-40zm-98 20-138 59h374l-98-39-59 20zm-91 90h280v20H482zm0 40h280v40H482zm-100 79h20v20h-20zm40 0h200v20H422zm370 0c5.54 0 10 4.46 10 10s-4.46 10-10 10-10-4.46-10-10 4.46-10 10-10zm30 0c5.54 0 10 4.46 10 10s-4.46 10-10 10-10-4.46-10-10 4.46-10 10-10zm30 0c5.54 0 10 4.46 10 10s-4.46 10-10 10-10-4.46-10-10 4.46-10 10-10z"/></svg>
